<?xml version="1.0" encoding="utf-8"?>
<!-- Generator: Adobe Illustrator 25.2.0, SVG Export Plug-In . SVG Version: 6.00 Build 0)  -->
<svg version="1.1" id="katman_1" xmlns="http://www.w3.org/2000/svg" xmlns:xlink="http://www.w3.org/1999/xlink" x="0px" y="0px"
	 viewBox="0 0 560 400" style="enable-background:new 0 0 560 400;" xml:space="preserve">
<style type="text/css">
	.st0{fill:#253858;}
	.st1{fill:none;}
	.st2{fill:#2684FF;}
	.st3{fill:url(#SVGID_1_);}
</style>
<g transform="matrix(1.12751 0 0 1.12751 30.0291 164.329)">
	<path class="st0" d="M282.75,62.39h-7.57v-7.22c-2.74,5.08-8.12,8.22-13.9,8.1c-10.12,0-15.93-7-15.93-19.1V18.39h7.57V45
		c0,7.92,3.17,11.44,10.38,11.44c7,0,11.88-4.66,11.88-13.55v-24.5h7.57L282.75,62.39z M380.16,43.7
		c1.06,7.48,5.9,12.32,16.28,12.32c4.56,0,9.09-0.8,13.38-2.37v7c-3.61,1.92-9.15,2.62-13.64,2.62c-16.46,0-23.67-9.5-23.67-23
		c0-13.29,7.39-22.79,20.77-22.79c13.55,0,19,9.42,19,22.79v3.43H380.16z M204.95,62.39h-7.57V0H205v26.31
		c2.82-5.81,8.1-8.8,14.87-8.8c11.7,0,17.6,9.94,17.6,22.88c-0.04,12.41-6.2,22.88-18.52,22.88c-6.42,0-11.35-2.9-14-8.62
		L204.95,62.39z M325.25,61.25c-2.64,1.41-6.69,2-10.74,2c-15.66,0-23-9.5-23-23c0-13.29,7.3-22.79,23-22.79
		c3.62-0.11,7.21,0.63,10.49,2.16v7c-3.13-1.46-6.55-2.17-10-2.07c-11.44,0-16.1,7.21-16.1,15.75s4.75,15.75,16.28,15.75
		c3.4,0.09,6.79-0.44,10-1.58L325.25,61.25z M118.28,62.4H94.43V4.58h22.44c11.79,0,17.51,5.81,17.51,15.14
		c0,7-3.17,11.26-9.68,12.85c8.54,1.41,12.76,6.07,12.76,14.25C137.46,56.06,131.21,62.4,118.28,62.4z M154.1,62.4h-7.57v-44h7.57
		V62.4z M341.44,62.39h-7.56V0h7.57v39l18.92-20.59h9.86L349.54,40l21.56,22.39h-10.3L341.44,41.8V62.39z M431.72,18.39h11.7v7
		h-11.7v23.1c0.01,3.87,2.28,6.51,6.96,6.51c1.6-0.05,3.19-0.26,4.75-0.62v7.3c-1.66,0.47-3.38,0.71-5.1,0.7
		c-9.42,0-14-5.54-14-13.73V25.43h-7.13v-7h7.13V9.06h7.39V18.39z M176,18.39h11.7v7H176v23.1c0,3.87,2.29,6.51,7,6.51
		c1.6-0.05,3.19-0.26,4.75-0.62v7.3c-1.66,0.47-3.37,0.71-5.1,0.7c-9.42,0-14-5.54-14-13.73V25.43h-7.13v-7h7.13V9.06H176V18.39z
		 M217.8,24.55c-6.8,0-12.8,4.31-12.8,14.08v3.52c0,9.77,5.54,14.08,12,14.08c8.54,0,12.94-5.63,12.94-15.84
		C229.86,29.83,225.64,24.55,217.8,24.55z M102.35,36.44v18h16.19c7.57,0,11-2.73,11-8.54c0-6.16-3.26-9.5-11.17-9.5L102.35,36.44z
		 M380.08,37.27h24.55c-0.44-8.18-4.14-12.85-11.7-12.85c-8.02-0.04-12.06,5.15-12.85,12.8L380.08,37.27z M102.35,12.15v17.24h13.46
		c7.48,0,10.56-3.43,10.56-9s-3.34-8.27-10.56-8.27L102.35,12.15z M150.4,1.5c0.12-0.01,0.24-0.01,0.35-0.01
		c2.71,0,4.94,2.23,4.94,4.94c0,0.12-0.01,0.24-0.01,0.35c0,2.9-2.38,5.28-5.28,5.28s-5.28-2.38-5.28-5.28
		c-0.01-0.12-0.01-0.24-0.01-0.35c0-2.71,2.23-4.94,4.94-4.94C150.17,1.49,150.28,1.49,150.4,1.5z"/>
	<path class="st1" d="M24.7,43.51h13.05l3.15-18.39H21.23L24.7,43.51z"/>
	<g>
		<path class="st2" d="M2,6.26c-0.01,0-0.02,0-0.03,0c-1.1,0-2,0.9-2,2c0,0.11,0.01,0.21,0.03,0.32l8.49,51.54
			c0.22,1.3,1.35,2.26,2.66,2.27h40.73c0.99,0.01,1.84-0.71,2-1.68l8.49-52.12c0.02-0.11,0.03-0.21,0.03-0.32c0-1.1-0.9-2-2-2
			c-0.01,0-0.02,0-0.03,0L2,6.26z M37.75,43.51h-13l-3.52-18.39H40.9L37.75,43.51z"/>
		
			<linearGradient id="SVGID_1_" gradientUnits="userSpaceOnUse" x1="-151.8138" y1="299.4314" x2="-150.8138" y2="299.4314" gradientTransform="matrix(-34.9754 27.297 27.297 34.9754 -13419.3057 -6298.3789)">
			<stop  offset="0" style="stop-color:#0052CC"/>
			<stop  offset="0.18" style="stop-color:#0052CC"/>
			<stop  offset="1" style="stop-color:#2684FF"/>
		</linearGradient>
		<path class="st3" d="M59.67,25.12H40.9l-3.15,18.39h-13L9.4,61.73c0.49,0.42,1.11,0.65,1.75,0.66h40.74
			c0.99,0.01,1.84-0.71,2-1.68L59.67,25.12z"/>
	</g>
</g>
</svg>
