<?xml version="1.0" encoding="utf-8"?>
<!-- Generator: Adobe Illustrator 25.4.1, SVG Export Plug-In . SVG Version: 6.00 Build 0)  -->
<svg version="1.0" id="Layer_1" xmlns="http://www.w3.org/2000/svg" xmlns:xlink="http://www.w3.org/1999/xlink" x="0px" y="0px"
	 viewBox="0 0 881.6 629.3" style="enable-background:new 0 0 881.6 629.3;" xml:space="preserve">
<style type="text/css">
	.st0{fill:#010101;}
	.st1{fill:#EC673B;}
	.st2{fill:#FFFFFF;}
</style>
<path class="st0" d="M228.1,311.3h-20.5v35.4h-13.5v-89.6h34c17.6,0,28.7,11.7,28.7,27.2S245.3,311.3,228.1,311.3z M227.2,269.2
	h-19.6V299h19.6c9.7,0,15.8-5.6,15.8-14.9S236.8,269.2,227.2,269.2z"/>
<path class="st0" d="M304.7,340c-10.7,10.1-27.3,10.1-38,0c-6.1-6.4-7.6-14.3-7.6-25.2s1.5-18.7,7.6-25.2c10.6-10.1,27.4-10.1,38,0
	c6.1,6.4,7.6,14.3,7.6,25.2S310.9,333.6,304.7,340z M295.1,297.3c-2.5-2.4-5.9-3.7-9.4-3.5c-3.5,0-6.8,1.2-9.4,3.5
	c-3.8,3.8-4.4,10.5-4.4,17.6s0.6,13.5,4.4,17.6c2.5,2.4,5.9,3.8,9.4,3.8c3.5,0.1,6.9-1.3,9.4-3.8c3.8-3.8,4.4-10.5,4.4-17.6
	S298.9,301.1,295.1,297.3z"/>
<path class="st0" d="M355.3,297.9c-2.9-2.9-5.3-4.4-9.6-4.4c-7,0-12.6,5.6-12.6,14.3v38.9h-12.9v-63.8h12.6v7c3.2-4.7,10-7.6,17-7.6
	c5.7-0.2,11.2,2,15.2,6.1L355.3,297.9z"/>
<path class="st0" d="M391,346.7c-12,0-17.5-8.5-17.5-17.9v-36h-7.3v-9.7h7.3v-18.4h12.9v18.1h12.3v10h-12.3v35.7
	c0,4.7,2.3,7.3,7,7.3h5.3v10.8L391,346.7z"/>
<path class="st0" d="M434.3,347.6c-13.5,0-23.1-3.2-31.6-12l9.1-9.1c6.4,6.4,14,8.8,23.1,8.8c11.7,0,18.4-5,18.4-13.8
	c0-4.1-0.9-7.3-3.5-9.4c-2.3-2-5.3-3.2-10-3.8l-10.5-1.5c-7.3-1.2-12.9-3.5-17-7.3c-4.4-4.1-6.7-10-6.7-17.3
	c0-15.5,11.4-26.3,29.9-26.3c12,0,20.2,2.9,27.8,10.2l-8.5,8.5c-5.6-5.3-12-7-19.9-7c-10.5,0-16.1,5.9-16.1,14
	c-0.3,3.1,0.9,6.2,3.2,8.2c2.3,2,5,3.2,10,4.1l10.8,1.5c8.2,1.2,12.6,3.2,16.7,6.7c4.7,4.4,7.3,10.5,7.3,18.4
	C466.6,337.6,453.1,347.6,434.3,347.6z"/>
<path class="st0" d="M535.9,346.7h-11.1l-14.9-44.5l-14.9,44.5h-11.1l-19.6-63.8h13.5l12.3,45.1l14.9-45.1h10l14.6,45.1l12.3-45.1
	h13.8L535.9,346.7z"/>
<path class="st0" d="M559.3,270.3v-13.8h13.5v13.5h-13.5V270.3z M559.9,346.7v-63.8h12.9v63.8H559.9z"/>
<path class="st0" d="M605,373.4c-9.7,0-15.8-2.4-22.5-8.5l8.2-8.2c3.5,3.8,8.6,5.9,13.8,5.6c10.8,0,14.9-7.6,14.9-16.4v-8.2
	c-4.7,5.6-10,7.3-16.4,7.3c-5.6,0.3-11.1-1.7-15.2-5.6c-6.1-6.1-7.3-15.2-7.3-26s0.9-19.9,7.3-26c3.5-3.5,9.1-5.6,15.2-5.6
	c6.7,0,12,1.8,16.7,7.6v-6.7h12.6v63.5C632.2,361.9,621.9,373.4,605,373.4z M606.4,293.8c-11.7,0-13.2,10-13.2,19.9
	s1.5,19.9,13.2,19.9s12.9-10,12.9-19.9S618.1,293.8,606.4,293.8z"/>
<path class="st0" d="M665,373.4c-9.7,0-15.8-2.4-22.5-8.5l8.2-8.2c3.5,3.8,8.6,5.9,13.8,5.6c10.8,0,14.9-7.6,14.9-16.4v-8.2
	c-4.7,5.6-10,7.3-16.4,7.3c-5.6,0.3-11.1-1.7-15.2-5.6c-6.1-6.1-7.3-15.2-7.3-26s0.9-19.9,7.3-26c3.5-3.5,9.1-5.6,15.2-5.6
	c6.7,0,12,1.8,16.7,7.6v-6.7h12.6v63.5C692.5,361.9,681.9,373.4,665,373.4z M666.4,293.8c-11.7,0-13.2,10-13.2,19.9
	s1.5,19.9,13.2,19.9s12.9-10,12.9-19.9S678.1,293.8,666.4,293.8z"/>
<path class="st0" d="M712.9,318.6c0,11.1,5.6,17.9,16.1,17.9c7.3,0,10.8-2,15.5-6.4l8.2,7.6c-6.4,6.4-12.6,10-24,10
	c-16.1,0-28.7-8.5-28.7-32.8c0-20.8,10.8-32.5,27.2-32.5c17.3,0,27.2,12.3,27.2,31v5.6L712.9,318.6z M739.9,301.1
	c-3.2-6.9-11.4-10-18.3-6.8c0,0-0.1,0-0.1,0.1c-2.9,1.5-5.3,3.8-6.7,6.7c-1.2,2.8-1.8,5.8-1.8,8.8h28.6
	C741.6,306.8,741,303.8,739.9,301.1L739.9,301.1z"/>
<path class="st0" d="M796.9,297.9c-2.9-2.9-5.3-4.4-9.7-4.4c-7,0-12.6,5.6-12.6,14.3v38.9h-12.9v-63.8h12.6v7c3.2-4.7,10-7.6,17-7.6
	c5.7-0.3,11.3,2,15.2,6.2L796.9,297.9z"/>
<rect x="75" y="256.6" class="st1" width="90.4" height="90.4"/>
<polygon class="st2" points="125,347.3 115.4,347.3 115.4,332.7 128.6,316.6 115.4,316.6 115.4,297 91.7,297 115.4,267.7 
	115.4,256.6 125,256.6 125,271.2 111.9,287.3 125,287.3 125,306.9 148.7,306.9 125,336.2 "/>
</svg>
