<?xml version="1.0" encoding="utf-8"?>
<!-- Generator: Adobe Illustrator 26.0.3, SVG Export Plug-In . SVG Version: 6.00 Build 0)  -->
<svg version="1.0" id="katman_1" xmlns="http://www.w3.org/2000/svg" xmlns:xlink="http://www.w3.org/1999/xlink" x="0px" y="0px"
	 viewBox="0 0 600 450" style="enable-background:new 0 0 600 450;" xml:space="preserve">
<style type="text/css">
	.st0{fill:#1E2022;}
</style>
<g>
	<path class="st0" d="M260.3,225.2h7.4c2.4,0,4.1-0.7,5.3-1.9c1.2-1.4,1.9-3.3,1.9-5.9v-0.7c0-2.6-0.7-4.6-1.9-5.9
		c-1.2-1.4-3.1-1.9-5.3-1.9h-7.4C260.3,209,260.3,225.2,260.3,225.2z M255.7,243.5v-37.4c0-0.5,0.2-0.9,0.5-1.2
		c0.3-0.3,0.9-0.5,1.4-0.5h10.5c3.6,0,6.4,1,8.6,2.9c2.1,1.9,3.3,5,3.3,9.1v0.7c0,4.1-1,7.2-3.3,9.1c-2.2,1.9-5.2,2.9-8.8,2.9h-7.4
		v14.3c0,0.5-0.2,0.9-0.7,1.2c-0.5,0.3-1,0.5-1.7,0.5s-1.2-0.2-1.5-0.5C256,244.3,255.7,244,255.7,243.5z"/>
	<path class="st0" d="M300.8,233.3c0,5.2,2.4,7.9,7.2,7.9c2.4,0,4.1-0.7,5.3-1.9c1.2-1.4,1.9-3.3,1.9-5.9v-16.7
		c0-2.6-0.7-4.6-1.9-5.9c-1.2-1.4-3.1-1.9-5.3-1.9c-4.8,0-7.2,2.6-7.2,7.9V233.3z M296.1,233.3v-16.7c0-4.1,1-7.2,3.3-9.1
		s5-2.9,8.6-2.9c3.6,0,6.5,1,8.8,2.9s3.3,5,3.3,9.1v16.7c0,4.1-1,7.2-3.3,9.1c-2.2,1.9-5.2,2.9-8.8,2.9c-3.6,0-6.5-1-8.6-2.9
		C297.2,240.6,296.1,237.5,296.1,233.3z"/>
	<path class="st0" d="M336.4,239.3c0-0.5,0.2-1.2,0.7-1.7c0.3-0.5,0.9-0.9,1.4-0.9c0.3,0,0.7,0.2,1.2,0.7c0.5,0.5,1,1,1.5,1.5
		c0.5,0.5,1.4,1,2.6,1.5s2.6,0.7,4,0.7c2.4,0,4.3-0.5,5.7-1.7c1.4-1.2,2.1-2.9,2.1-5.2c0-2.1-0.7-3.6-1.9-5
		c-1.2-1.2-2.8-2.2-4.5-2.9c-1.7-0.7-3.6-1.4-5.3-2.1c-1.7-0.7-3.3-1.9-4.6-3.4c-1.2-1.5-1.9-3.6-1.9-6c0-1.9,0.3-3.6,1-5
		c0.7-1.4,1.7-2.6,2.9-3.3c1.2-0.7,2.6-1.2,3.8-1.5c1.4-0.3,2.8-0.5,4.3-0.5c2.2,0,4.5,0.3,6.5,1c2.1,0.7,3.1,1.5,3.1,2.8
		c0,0.5-0.2,1-0.5,1.7c-0.3,0.5-0.9,0.9-1.4,0.9c-0.2,0-1-0.3-2.6-1c-1.5-0.7-3.3-1-5.2-1c-2.2,0-4.1,0.5-5.5,1.4
		c-1.4,0.9-2.1,2.4-2.1,4.3c0,1.7,0.7,3.1,1.9,4.1c1.2,1,2.8,1.9,4.6,2.6c1.7,0.7,3.6,1.4,5.3,2.2c1.7,0.9,3.3,2.1,4.5,4
		c1.2,1.7,1.9,4.1,1.9,6.9c0,3.8-1,6.7-3.3,8.6c-2.2,1.9-5.2,2.9-8.8,2.9c-3.3,0-6-0.7-8.3-2.1C337.6,242.1,336.4,240.7,336.4,239.3
		z"/>
	<path class="st0" d="M374.3,206.6c0-0.5,0.2-1,0.5-1.4c0.3-0.3,0.7-0.7,1.2-0.7h22.6c0.5,0,0.9,0.2,1.2,0.7
		c0.3,0.3,0.5,0.9,0.5,1.4c0,0.5-0.2,1-0.5,1.5s-0.7,0.7-1.2,0.7h-9v34.6c0,0.5-0.2,0.9-0.7,1.2s-1,0.5-1.7,0.5s-1.2-0.2-1.7-0.5
		c-0.5-0.3-0.7-0.7-0.7-1.2v-34.6h-9c-0.5,0-0.9-0.2-1.2-0.7C374.5,207.8,374.3,207.3,374.3,206.6z"/>
	<path class="st0" d="M416,243.5v-36.7c0-1.5,0.9-2.2,2.4-2.2s2.8,1,3.8,2.9l8.8,16.7l8.8-16.7c1-1.9,2.2-2.9,3.8-2.9
		s2.4,0.7,2.4,2.2v36.7c0,0.5-0.2,0.9-0.7,1.2c-0.5,0.3-1,0.5-1.5,0.5c-0.7,0-1.2-0.2-1.7-0.5c-0.5-0.3-0.7-0.7-0.7-1.2v-29.1
		l-8.4,15.7c-0.5,0.9-1,1.2-1.9,1.2c-0.7,0-1.2-0.3-1.7-1.2l-8.3-16v29.3c0,0.5-0.2,0.9-0.7,1.2c-0.5,0.3-1,0.5-1.7,0.5
		s-1.2-0.2-1.7-0.5C416.2,244.3,416,244,416,243.5z"/>
	<path class="st0" d="M469.5,231.9h12.4l-6.2-20.8L469.5,231.9z M461.4,243.1c0,0,0-0.2,0.2-0.5l11.4-36.9c0.3-1,1.2-1.5,2.8-1.5
		c1.5,0,2.6,0.5,2.8,1.5l11.4,37v0.2v0.2c0,0.5-0.3,0.9-0.9,1.4c-0.7,0.3-1.2,0.5-1.9,0.5c-0.9,0-1.4-0.3-1.7-1l-2.4-8.3h-14.6
		l-2.4,8.3c-0.2,0.7-0.9,1-1.7,1c-0.7,0-1.2-0.2-1.9-0.5C461.8,244.2,461.4,243.7,461.4,243.1z"/>
	<path class="st0" d="M506.1,243.5v-37.4c0-1,0.9-1.5,2.4-1.5c0.9,0,1.4,0.2,1.9,0.7c0.5,0.5,1,1.2,1.5,2.2l13.8,27v-28.4
		c0-0.5,0.2-0.9,0.7-1.2c0.5-0.3,1-0.3,1.5-0.3c0.7,0,1.2,0.2,1.7,0.3c0.5,0.3,0.7,0.7,0.7,1.2v37.2c0,0.5-0.2,0.9-0.7,1.2
		c-0.5,0.3-1,0.5-1.7,0.5c-1.2,0-2.2-0.7-2.9-2.1l-14.3-27.9v28.4c0,0.5-0.2,0.9-0.7,1.2c-0.5,0.3-1,0.5-1.7,0.5s-1.2-0.2-1.7-0.5
		C506.4,244.3,506.1,244,506.1,243.5z"/>
	<g>
		<path class="st0" d="M138.6,256.6c26.9-22.4,32-39.8,32-40c0,0,0.2-0.7,0.5-1.5c-1.2,1.5-2.2,2.8-2.4,3.1l-34.1,34.4L138.6,256.6z
			"/>
		<path class="st0" d="M172.5,208.3c0-0.2,0-0.2,0-0.3c0.2-2.2,0.2-4.5-0.5-6.5l-1-1.2l-39.6,40.3l0.3-0.2l-4.8,4.6l6.4,6.2l35-35.8
			l3.1-4.3C172,210.2,172.5,209.2,172.5,208.3z"/>
		<path class="st0" d="M153.5,199.6c-0.2,0-15.2,5.7-38.2,34.1l10.2,10l44.3-44.9c0,0,0-0.2-0.2-0.2
			C163,195.9,153.7,199.6,153.5,199.6z"/>
		<path class="st0" d="M170.9,197c0.7,1,1.7,2.1,2.2,2.6l0,0c2.6,2.4,6,4.1,9.8,4.6c2.9,0.3,5.7-0.2,8.3-1.2
			c-1.5-1.5-4.8-5-12.4-13.1l-0.7-0.7l16.9-15.7c-2.4-1.9-5.3-3.1-8.4-3.4c-9.3-1-17.7,5.7-18.8,15l0,0
			C167.5,189.7,168.7,193.7,170.9,197z"/>
		<polygon class="st0" points="69.7,305.3 92.4,304.4 81.2,293.4 		"/>
		<path class="st0" d="M161.6,144.5c-42-5.3-80.4,24.3-85.9,66.3c-3.1,23.9,5.3,46.7,20.8,62.9l26.2-26.9l-25.3,5.5l15.5-18.6
			l0.3-0.5c23.8-29.4,38.9-35.1,39.6-35.5c0.3-0.2,8.3-3.1,15.3-1.7c-1.7-3.3-2.6-7.1-2.1-11l0,0c1.2-10.3,10.5-17.9,20.8-16.7
			c4,0.5,7.6,2.1,10.3,4.6c3.6,2.6,5.5,7.6,6.2,9.6c0.7,2.2,1,9.8-2.6,15c-2.9,4.3-6.9,6.5-7.7,6.5l0,0c-2.6,1.2-5.3,1.9-8.3,1.9
			c-0.7,0-1.4,0-2.1-0.2c-3.1-0.3-5.9-1.4-8.3-3.1c0.3,1.4,0.3,3.1,0,5c-0.3,4.6-2.1,8.8-2.2,9.1c-0.2,0.7-5.3,18.4-33.4,41.5l0,0
			c-2.4,2.1-5,4.3-7.7,6.7c-6.5,5.7-14.1,12.2-22.9,18.4c9.8,6.7,21.2,11.4,33.8,12.9c42,5.3,80.4-24.3,85.8-66.3
			C233.3,188.2,203.6,149.8,161.6,144.5z"/>
		<polygon class="st0" points="102.2,249.2 123.6,244.5 114.1,235.2 		"/>
		<polygon class="st0" points="131.3,252.1 125.5,246.4 117.5,254.7 		"/>
		<path class="st0" d="M81.9,291.4l15,14.8l-3.6-15.7l0.7-0.3c14.8-7.6,26.5-18.1,36.2-26.3c2.4-2.1,4.8-4.1,7.1-6l-3.1-2.9l-1-1
			l-17.6,3.1L81.9,291.4z"/>
	</g>
	<path class="st0" d="M201.2,183.2c-0.5-1.7-1.9-5.7-4.6-7.9l-15.3,14.1c4.1,4.5,10.2,10.8,12.1,12.6c0.3-0.2,0.5-0.3,0.9-0.5
		c0.2-0.2,0.3-0.2,0.5-0.3l0.2-0.2c1.2-0.9,2.8-2.4,4.1-4.3C202.1,192.2,201.9,185.1,201.2,183.2z M195.9,195.4l-1.5-1
		c0.5-0.7,0.9-1.5,1.2-2.4l0.9-5.7c0-1.9-0.3-3.3-0.3-3.3l1.9-0.5C198,182.9,199.7,190.1,195.9,195.4z"/>
</g>
</svg>
